<?xml version="1.0" standalone="no"?>
<!DOCTYPE svg PUBLIC "-//W3C//DTD SVG 20010904//EN"
 "http://www.w3.org/TR/2001/REC-SVG-20010904/DTD/svg10.dtd">
<svg version="1.0" xmlns="http://www.w3.org/2000/svg"
 width="700.000000pt" height="700.000000pt" viewBox="0 0 700.000000 700.000000"
 preserveAspectRatio="xMidYMid meet">
<metadata>
Created by potrace 1.14, written by Peter Selinger 2001-2017
</metadata>
<g transform="translate(0.000000,700.000000) scale(0.100000,-0.100000)"
fill="#000000" stroke="none">
<path d="M335 6983 c-54 -29 -84 -73 -89 -129 -4 -48 15 -95 62 -153 21 -25
40 -50 45 -56 7 -10 66 -86 147 -191 25 -32 81 -106 126 -164 44 -58 239 -312
434 -565 195 -253 383 -498 419 -545 36 -47 67 -87 71 -90 3 -3 46 -59 96
-125 50 -66 108 -143 130 -171 21 -28 75 -97 119 -155 44 -57 85 -111 92 -119
7 -8 63 -80 123 -160 61 -80 122 -158 135 -175 212 -273 412 -536 423 -558 20
-41 11 -114 -21 -162 -24 -36 -68 -96 -165 -226 -18 -24 -42 -55 -52 -69 -10
-14 -75 -101 -144 -195 -69 -93 -129 -174 -133 -180 -5 -5 -29 -37 -53 -70
-24 -33 -107 -145 -185 -250 -77 -104 -169 -228 -203 -275 -35 -47 -68 -92
-75 -100 -7 -8 -73 -98 -149 -200 -75 -102 -181 -246 -236 -320 -56 -74 -141
-189 -190 -255 -49 -66 -169 -228 -268 -360 -98 -132 -194 -262 -213 -290 -19
-27 -37 -52 -40 -55 -4 -3 -53 -68 -109 -145 -57 -77 -110 -149 -119 -159 -8
-10 -28 -40 -44 -65 -39 -60 -38 -125 2 -181 51 -70 36 -68 673 -64 517 4 573
6 605 22 35 17 76 67 444 552 208 273 796 1043 810 1060 7 8 55 71 107 140 53
69 133 175 180 235 46 61 126 166 178 235 52 69 110 139 129 157 54 51 141 56
197 12 14 -11 226 -282 473 -602 246 -320 452 -587 458 -593 5 -7 19 -24 30
-39 21 -29 150 -198 190 -250 13 -16 164 -212 334 -434 171 -222 321 -417 333
-433 13 -16 39 -38 59 -48 35 -18 66 -19 596 -20 602 0 603 0 649 52 27 31 44
72 44 109 0 30 -24 99 -38 109 -5 3 -69 86 -142 185 -74 99 -137 182 -140 185
-3 3 -79 104 -170 225 -91 120 -170 226 -177 235 -7 8 -128 168 -269 355 -141
187 -329 436 -418 553 -88 117 -170 226 -181 242 -11 15 -135 180 -276 367
-369 487 -654 865 -1116 1478 -224 297 -445 590 -491 650 -46 61 -92 121 -102
135 -52 69 -404 536 -648 860 -152 201 -379 502 -506 670 -395 524 -411 544
-445 567 l-33 22 -622 0 c-552 0 -624 -1 -651 -16z"/>
<path d="M5374 6986 c-42 -19 -65 -48 -386 -481 -154 -209 -344 -465 -422
-570 -78 -104 -153 -206 -166 -225 -13 -19 -27 -37 -30 -40 -18 -15 -492 -665
-500 -686 -11 -28 -5 -96 12 -127 14 -26 45 -54 78 -69 17 -8 204 -12 605 -15
509 -3 585 -1 622 13 49 18 9 -31 538 659 148 193 289 377 314 410 25 33 49
65 54 70 4 6 80 105 168 220 88 116 166 217 172 225 17 20 128 166 212 275 95
125 105 143 105 196 0 51 -26 98 -73 133 -28 21 -37 21 -650 23 -504 2 -628 0
-653 -11z"/>
</g>
</svg>
