<svg xmlns:xlink="http://www.w3.org/1999/xlink" width="32" height="32" xmlns="http://www.w3.org/2000/svg" viewBox="0 0 19.29432 20.70502"><path d="M3.91151,0H.49043C.0977,0-.12421,.4507,.11528,.76197L7.13038,9.87997c.12903,.16771,.13108,.40068,.00501,.57063L.09404,19.94331c-.23256,.31353-.007,.75795,.38335,.75533l3.19257-.02148c.14638-.00098,.28407-.06964,.37294-.18596l5.23137-6.847c.18905-.24743,.5614-.24806,.75128-.00126l5.29124,6.87737c.0896,.11646,.22821,.18471,.37516,.18471h3.12816c.39069,0,.61317-.44658,.37785-.75844L4.28936,.18824c-.08945-.11854-.22934-.18824-.37785-.18824Z" fill="#444444"></path><path d="M18.79317,0h-3.41703c-.14982,0-.2908,.07093-.3801,.19124l-4.18349,5.63677c-.23156,.312-.00935,.7547,.37919,.75544l3.27662,.00625c.14759,.00028,.28686-.06829,.37663-.18545L19.16889,.76124c.23861-.3114,.01658-.76124-.37572-.76124Z" fill="#444444"></path></svg>